<?xml version="1.0" encoding="utf-8"?>
<!-- Generator: Adobe Illustrator 23.0.2, SVG Export Plug-In . SVG Version: 6.00 Build 0)  -->
<svg version="1.1" id="Layer_1" xmlns="http://www.w3.org/2000/svg" xmlns:xlink="http://www.w3.org/1999/xlink" x="0px" y="0px"
	 viewBox="0 0 24 24" style="enable-background:new 0 0 24 24;" xml:space="preserve">
<title>Icon/Interface Essentials/ic-pencil-1-bold</title>
<desc>Created with Sketch.</desc>
<g>
	<path d="M14.3,6L18,9.7c0.1,0.1,0.1,0.4,0,0.5l-8.2,8.2c-0.1,0.1-0.4,0.1-0.5,0l-3.7-3.7c-0.1-0.1-0.1-0.4,0-0.5L13.8,6
		c0.1-0.1,0.2-0.1,0.3-0.1C14.1,5.8,14.2,5.9,14.3,6z M4.8,15.6l3.6,3.6c0.1,0.1,0.1,0.2,0.1,0.4c0,0.1-0.1,0.2-0.3,0.3L3.5,21
		c-0.1,0-0.3,0-0.4-0.1C3,20.8,3,20.7,3,20.5l1.1-4.7c0-0.1,0.1-0.2,0.3-0.3C4.5,15.5,4.7,15.5,4.8,15.6z M20.4,5.2
		c0.7,0.7,0.7,1.9,0,2.7l-1.1,1.1C19.2,9,19,9,18.8,8.9l-3.7-3.7C15,5,15,4.8,15.1,4.6l1.1-1.1c0.7-0.7,1.9-0.7,2.7,0L20.4,5.2z"/>
</g>
</svg>
